<svg width="64" height="64" viewBox="0 0 64 64" xmlns="http://www.w3.org/2000/svg">
  <title>fs-tools</title>
  <g id="group-hive"
     stroke="#98C379" stroke-width="1" fill="#3f3f3f"
     stroke-linecap="round" stroke-miterlimit="100" stroke-linejoin="round"
  >
    <path id="hive-center"
          d="M32,32 m-16,-27.713
          l32,0 l16,27.713 l-16,27.713 l-32,0 l-16,-27.713 l16,-27.713 Z"
          transform="rotate(90, 32, 32)"
    />
  </g>
  <g id="group-fs"
     stroke="#fefefe" stroke-width="1.25"
     stroke-linecap="round" stroke-miterlimit="100" stroke-linejoin="round"
  >
    <path id="fs-f1"
          d="
          M24,32 m0,-20
          a6,6,0,0,0,-4.3,10
          a35,35,0,0,1,1,32
          "
          fill="none"
    />
    <path id="fs-f2"
          d="
          M24,32 m5,-6
          a16,40,-14,0,1,-14,0
          "
          fill="none"
    />
    <path id="fs-s1 >_"
          d="
          M40,32 m2,-8
          a16,16,0,0,0,-1,16
          a16,16,0,0,1,-3,15
          "
          fill="none"
    />
    <path id="fs-s2 >_"
          d="
          M40,32 m-5,-4
          a8,8,0,0,0,0,9
          m10.5,-8
          a8,8,0,0,0,0,8
          m-9.8,4
          a8,8,0,0,1,-1.5,10
          m12,-9
          a8,9,0,0,1,-0.5,10
          "
          fill="none"
    />
  </g>
</svg>