<svg width="64" height="64" viewBox="0 0 64 64" xmlns="http://www.w3.org/2000/svg">
  <title>fs-docs: logo</title>
  <!-- color blocks -->
  <path fill="#50a4ff"
        d="
          M3,0
          l29,0 l0,32 l-32,0
          l0,-29 a3,3,0,0,1,3,-3
          Z
          "
  />
  <path fill="#98C379"
        d="
          M32,0
          l29,0 a3,3,0,0,1,3,3
          l0,29 l-32,0 l0,-29
          Z
          "
  />
  <path fill="#ff5350"
        d="
          M32,32
          l32,0
          l0,29 a3,3,0,0,1,-3,3
          l-29,0 l0,-32
          Z
          "
  />
  <path fill="#ffaa50"
        d="
          M0,32
          l32,0 l0,32
          l-29,0 a3,3,0,0,1,-3,-3
          l0,-29
          Z
          "
  />
  <!-- chars: >fsd -->
  <path stroke="#eeeeee" stroke-width="2" fill="none" stroke-linecap="round" stroke-linejoin="round"
        d="
          M48,16 m-6,-6
          l12,6 l-12, 6
          "
  />
  <g id="letter-f-lower"
     stroke="#eeeeee" stroke-width="2" fill="none" stroke-linecap="round" stroke-linejoin="round"
     transform="translate(16, 32) scale(1, 0.5)"
  >
    <circle cx="32" cy="14" r="6"/>
    <path d="
            M32,32 m0,-12
            a20,36,0,0,1,-5,40
            "
    />
    <path d="
            M32,32 m8,-4
            a18,64,-10,0,1,-14,0
            "
    />
  </g>
  <g id="letter-s-lower"
     stroke="#eeeeee" stroke-width="2" fill="none" stroke-linecap="round" stroke-linejoin="round"
     transform="translate(-16, 0) scale(1, 0.5)"
  >
    <path d="
          M32,32 m0,-10
          a32,16,0,0,0,-1,14
          a32,20,0,0,1,-3,19
          "
    />
    <path d="
          M32,32 m-9,-5
          a28,14,0,0,0,1.5,10
          m12,-10
          a32,14,0,0,0,2.5,10
          m-12.5,5
          a32,14,0,0,1,-4,10
          m17,-10
          a24,18,0,0,1,-1.5,11
          "
    />
  </g>
  <g id="letter-d-lower"
     stroke="#3f3f3f" stroke-width="2" fill="none" stroke-linecap="round" stroke-linejoin="round"
     transform="translate(-16, 32) scale(1, 0.5)"
  >
    <ellipse cx="32" cy="44" rx="8" ry="12"/>
    <path d="
            M32,32 m8,-24
            l0,48
            "
    />
  </g>
</svg>