<svg width="640" height="640" viewBox="0 0 640 640" xmlns="http://www.w3.org/2000/svg">
  <title>fs-font</title>
  <rect width="640" height="640" fill="#3f3f3f"/>
  <g id="letter-f-lower"
     stroke="#fefefe" stroke-width="2" fill="none" stroke-linecap="round" stroke-linejoin="round"
     transform="translate(0, 0)"
  >
    <circle cx="32" cy="12" r="6"/>
    <path d="
            M32,32 m0,-14
            a20,36,0,0,1,-5,44
            "
    />
    <path d="
            M32,32 m8,-6
            a18,64,-10,0,1,-14,0
            "
    />
  </g>
  <g id="letter-s-lower"
     stroke="#fefefe" stroke-width="2" fill="none" stroke-linecap="round" stroke-linejoin="round"
     transform="translate(32, 0)"
  >
    <path d="
          M32,32 m0,-8
          a32,24,0,0,0,-1,16
          a32,24,0,0,1,-2,22
          "
    />
    <path d="
          M32,32 m-8,-4
          a28,24,0,0,0,0,10
          m14,-10
          a32,16,0,0,0,0,10
          m-12,10
          a32,14,0,0,1,-2,10
          m16,-10
          a24,18,0,0,1,-2,12
          "
    />
  </g>
  <g id="letter-t-lower"
     stroke="#fefefe" stroke-width="2" fill="none" stroke-linecap="round" stroke-linejoin="round"
     transform="translate(64, 0)"
  >
    <path d="
            M32,32 m0,-26
            l0,44
            "
    />
    <path d="
            M32,32 m8,-6
            a12,12,0,0,1,-16,0
            "
    />
    <circle cx="32" cy="56" r="6"/>
  </g>
  <g id="letter-h-lower"
     stroke="#fefefe" stroke-width="2" fill="none" stroke-linecap="round" stroke-linejoin="round"
     transform="translate(96, 0)"
  >
    <path d="
            M32,32 m-8,-26
            l0,56
            a8,34,0,0,1,16,0
            "
    />
    <path d="
            M32,32 m0,-4
            l0,34
            "
    />
    <path d="
            M32,32 m-12,13
            l24,0
            "
    />
  </g>
  <g id="letter-d-lower"
     stroke="#fefefe" stroke-width="2" fill="none" stroke-linecap="round" stroke-linejoin="round"
     transform="translate(128, 0)"
  >
    <ellipse cx="32" cy="44" rx="8" ry="16"/>
    <path d="
            M32,32 m8,-25
            l0,53
            "
    />
  </g>
</svg>