<svg width="640" height="640" viewBox="0 0 640 640" xmlns="http://www.w3.org/2000/svg">
  <title>fs-font</title>
  <g id="letter-f-lower"
     stroke="#fefefe" stroke-width="2" fill="none" stroke-linecap="round" stroke-linejoin="round"
     transform="translate(0, 0)"
  >
    <g>
      <rect width="64" height="64" stroke="#fefefe" stroke-width="0.5" fill="#3f3f3f"/>
      <path stroke-width="0.5"
            d="
            M32,32 m-32,-24
            l64,0
            M32,32 m-32,24
            l64,0
            "
      />
    </g>
    <circle cx="32" cy="14" r="6"/>
    <path d="
            M32,32 m0,-12
            a20,36,0,0,1,-5,40
            "
    />
    <path d="
            M32,32 m8,-4
            a18,64,-10,0,1,-14,0
            "
    />
  </g>
  <g id="letter-s-lower"
     stroke="#fefefe" stroke-width="2" fill="none" stroke-linecap="round" stroke-linejoin="round"
     transform="translate(64, 0)"
  >
    <g>
      <rect width="64" height="64" stroke="#fefefe" stroke-width="0.5" fill="#3f3f3f"/>
      <path stroke-width="0.5"
            d="
            M32,32 m-32,-24
            l64,0
            M32,32 m-32,24
            l64,0
            "
      />
    </g>
    <path d="
          M32,32 m0,-10
          a32,16,0,0,0,-1,14
          a32,20,0,0,1,-3,19
          "
    />
    <path d="
          M32,32 m-9,-5
          a28,14,0,0,0,1.5,10
          m12,-10
          a32,14,0,0,0,2.5,10
          m-12.5,5
          a32,14,0,0,1,-4,10
          m17,-10
          a24,18,0,0,1,-1.5,11
          "
    />
  </g>
  <g id="letter-t-lower"
     stroke="#fefefe" stroke-width="2" fill="none" stroke-linecap="round" stroke-linejoin="round"
     transform="translate(128, 0)"
  >
    <g>
      <rect width="64" height="64" stroke="#fefefe" stroke-width="0.5" fill="#3f3f3f"/>
      <path stroke-width="0.5"
            d="
            M32,32 m-32,-24
            l64,0
            M32,32 m-32,24
            l64,0
            "
      />
    </g>
    <path d="
            M32,32 m0,-24
            l0,36
            "
    />
    <path d="
            M32,32 m8,-10
            a12,12,0,0,1,-16,0
            "
    />
    <circle cx="32" cy="50" r="6"/>
  </g>
  <g id="letter-h-lower"
     stroke="#fefefe" stroke-width="2" fill="none" stroke-linecap="round" stroke-linejoin="round"
     transform="translate(192, 0)"
  >
    <g>
      <rect width="64" height="64" stroke="#fefefe" stroke-width="0.5" fill="#3f3f3f"/>
      <path stroke-width="0.5"
            d="
            M32,32 m-32,-24
            l64,0
            M32,32 m-32,24
            l64,0
            "
      />
    </g>
    <path d="
            M32,32 m-8,-24
            l0,48
            a8,34,0,0,1,16,0
            "
    />
    <path d="
            M32,32 m0,-10
            l0,34
            "
    />
    <path d="
            M32,32 m-12,13
            l24,0
            "
    />
  </g>
  <g id="letter-d-lower"
     stroke="#fefefe" stroke-width="2" fill="none" stroke-linecap="round" stroke-linejoin="round"
     transform="translate(256, 0)"
  >
    <g>
      <rect width="64" height="64" stroke="#fefefe" stroke-width="0.5" fill="#3f3f3f"/>
      <path stroke-width="0.5"
            d="
            M32,32 m-32,-24
            l64,0
            M32,32 m-32,24
            l64,0
            "
      />
    </g>
    <ellipse cx="32" cy="44" rx="8" ry="12"/>
    <path d="
            M32,32 m8,-24
            l0,48
            "
    />
  </g>
</svg>