<svg width="64" height="64" viewBox="0 0 64 64" xmlns="http://www.w3.org/2000/svg">
  <title>fs-font-s</title>
  <rect width="64" height="64" fill="#3f3f3f"/>
  <g stroke="#fefefe" stroke-width="2" fill="none" stroke-linecap="round" stroke-linejoin="round"
     transform="translate(0, 0)"
  >
    <path d="
          M32,32 m2,-8
          a32,24,0,0,0,-1,16
          a32,24,0,0,1,-2,22
          "
    />
    <path d="
          M32,32 m-6,-4
          a28,24,0,0,0,0,10
          m14,-10
          a32,16,0,0,0,0,10
          m-12,10
          a32,14,0,0,1,-2,10
          m16,-10
          a24,18,0,0,1,-2,12
          "
    />
  </g>
</svg>