<svg width="64" height="64" viewBox="0 0 64 64" xmlns="http://www.w3.org/2000/svg">
  <title>fs-font-s</title>
  <rect width="64" height="64" fill="#3f3f3f"/>
  <g id="letter-s-lower"
     stroke="#fefefe" stroke-width="2" fill="none" stroke-linecap="round" stroke-linejoin="round"
     transform="translate(0, 0)"
  >
    <path d="
          M32,32 m0,-10
          a32,16,0,0,0,-1,14
          a32,20,0,0,1,-3,19
          "
    />
    <path d="
          M32,32 m-9,-5
          a28,14,0,0,0,1.5,10
          m12,-10
          a32,14,0,0,0,2.5,10
          m-12.5,5
          a32,14,0,0,1,-4,10
          m17,-10
          a24,18,0,0,1,-1.5,11
          "
    />
  </g>
</svg>